<svg width="52" height="52" viewBox="0 0 52 52" fill="none" xmlns="http://www.w3.org/2000/svg">
<path d="M25.3883 0.00267738C25.0833 0.0229737 24.8522 0.0675129 24.5736 0.15941C24.3696 0.226501 24.2348 0.283443 24.0268 0.389999C23.7319 0.541094 23.441 0.736165 23.1755 0.962243C23.0875 1.03666 23.0655 1.05752 22.9302 1.19058C22.8603 1.25936 22.6286 1.48826 22.4143 1.69911C21.5427 2.5572 20.2015 3.87984 18.916 5.14893C17.1023 6.93895 14.6465 9.36831 13.732 10.2766C12.2278 11.7712 11.5586 12.4381 11.4989 12.5018C10.9616 13.0803 10.6504 13.763 10.5945 14.4875C10.5872 14.5862 10.5872 14.8258 10.5951 14.9227C10.6261 15.3219 10.731 15.6991 10.9108 16.0605C11.0574 16.3559 11.2243 16.5983 11.4678 16.8723C11.5299 16.9428 13.2116 18.624 14.0731 19.4776C14.8742 20.2708 15.7904 21.1757 17.0161 22.3839C17.5725 22.9319 18.1284 23.4805 18.2508 23.6017C18.5586 23.9067 18.6358 23.9806 18.7362 24.064C19.2509 24.4947 19.8299 24.7372 20.5144 24.8082C21.2377 24.8832 21.8804 24.7405 22.5006 24.3679C22.8253 24.1722 23.1151 23.9433 23.4923 23.5831C24.4598 22.6596 24.9305 21.7254 24.9074 20.7743C24.9001 20.4772 24.8555 20.2263 24.7574 19.9342C24.5968 19.4556 24.3109 18.9893 23.8892 18.5163C23.799 18.4148 23.507 18.1234 23.2347 17.8623C22.959 17.5979 22.5457 17.1852 22.4132 17.042C22.1573 16.7652 22.0169 16.5899 21.8895 16.3897C21.5968 15.9302 21.4334 15.4335 21.3961 14.8968C21.3882 14.7784 21.3928 14.5185 21.4052 14.4007C21.4441 14.0246 21.5529 13.652 21.7237 13.3069C21.8742 13.0036 22.049 12.7555 22.3315 12.4443C22.4967 12.2622 22.9184 11.8501 23.1608 11.633C23.7201 11.133 24.3662 10.8201 25.0275 10.7282C25.1859 10.7062 25.2519 10.7022 25.4503 10.7022C25.664 10.7028 25.757 10.7096 25.9352 10.7389C26.5711 10.8443 27.1586 11.1375 27.6936 11.6184C27.7545 11.6725 27.7861 11.7035 28.4525 12.3598C29.2672 13.162 29.7436 13.6334 32.1143 15.9793C33.632 17.4812 34.2584 18.1014 36.5964 20.4135C40.2638 24.0409 40.7724 24.5426 42.8234 26.5672C43.4588 27.1941 44.7555 28.4717 44.8559 28.5687C45.0064 28.7147 45.1254 28.8178 45.2365 28.8979C45.6249 29.1792 45.9897 29.2255 46.3668 29.0417C46.7209 28.8692 46.9098 28.5653 46.9667 28.0753C46.9983 27.803 47.0005 27.6187 47 25.4227C46.9994 23.4748 46.9983 23.3807 46.9786 23.083C46.8483 21.1656 46.1566 19.4691 44.9168 18.0258C44.6744 17.7439 44.5796 17.6464 43.6381 16.7133C42.0026 15.0919 31.7834 4.9657 29.7436 2.94508C28.2648 1.48036 28.2676 1.48318 28.1593 1.36028C28.0528 1.2385 27.8199 1.00622 27.7021 0.902482C27.0639 0.344332 26.4144 0.0511631 25.7125 0.00436874C25.6353 -0.000705341 25.4509 -0.00183292 25.3883 0.00267738Z" fill="#2196F3"/>
<path d="M4.93379 22.3049C4.82779 22.3218 4.72349 22.3556 4.61581 22.4092C4.28374 22.5738 4.10107 22.8546 4.03511 23.3017C4.00185 23.5289 3.99452 23.9404 4.00354 25.1605C4.02383 28.0623 4.02383 28.0533 4.05484 28.4361C4.21327 30.3749 4.9507 32.0855 6.25079 33.5299C6.48195 33.787 6.0281 33.3421 15.3052 42.4039C17.3084 44.3608 19.8341 46.8274 20.9177 47.885C22.3029 49.2376 22.9147 49.8391 22.9778 49.909C23.0956 50.0398 23.3567 50.3009 23.4615 50.3922C23.8573 50.7367 24.2305 50.9667 24.6415 51.1201C25.3829 51.3963 26.1784 51.3546 26.9643 50.9977C27.3595 50.8184 27.7768 50.5394 28.1145 50.2281C28.1962 50.1532 34.0523 44.2898 36.0193 42.3137C38.0704 40.2536 39.4855 38.8261 39.592 38.7111C40.0741 38.189 40.3774 37.5762 40.4693 36.938C40.4924 36.7807 40.4952 36.7305 40.4952 36.5067C40.4952 36.2834 40.493 36.2502 40.4693 36.081C40.3971 35.5719 40.1789 35.0594 39.8457 34.618C39.6822 34.4009 39.6338 34.3496 39.0125 33.7368C37.5551 32.2986 36.7145 31.4771 33.913 28.7546C33.4186 28.2737 32.8858 27.7561 32.7291 27.6039C32.4167 27.3 32.3908 27.2764 32.2921 27.1935C31.8231 26.8017 31.2756 26.5609 30.66 26.4747C30.3713 26.4341 30.0381 26.4301 29.7697 26.4628C29.1913 26.5344 28.6506 26.7729 28.1043 27.198C27.735 27.485 27.2908 27.9196 27.0021 28.2771C26.7106 28.6373 26.4936 28.9987 26.347 29.3663C26.1621 29.8309 26.0967 30.3112 26.1559 30.7786C26.2337 31.3926 26.5195 31.9975 27.0094 32.5855C27.1904 32.802 27.3466 32.9622 27.7818 33.3748C28.4279 33.9882 28.7138 34.2792 28.9489 34.5616C29.3841 35.0848 29.6395 35.7072 29.6902 36.368C29.6976 36.4655 29.6976 36.7119 29.6902 36.8061C29.6384 37.4668 29.3892 38.083 28.9573 38.6181C28.7538 38.8701 28.3123 39.3217 27.9369 39.6616C27.1735 40.3528 26.2342 40.6832 25.3209 40.5829C24.6009 40.5034 23.899 40.1617 23.3228 39.6109C23.2349 39.5263 22.6175 38.9282 22.0904 38.4151C21.3129 37.6591 20.721 37.0818 18.9501 35.3537C17.9398 34.3677 12.705 29.2631 11.2657 27.861C8.63956 25.3025 6.23501 22.9645 6.07602 22.8157C5.73831 22.4988 5.47784 22.3455 5.20779 22.3049C5.139 22.2947 5.00088 22.2947 4.93379 22.3049Z" fill="#2196F3"/>
</svg>
